<mxfile type="github" version="12.2.6" pages="1" etag="ICvqWGVZmp5qbR9pzwic" agent="Mozilla/5.0 (Windows NT 10.0; Win64; x64) AppleWebKit/537.36 (KHTML, like Gecko) Chrome/64.0.3282.140 Safari/537.36 Edge/18.17763" modified="2019-11-13T22:27:41.319Z" host="www.draw.io">
  <diagram id="eqyNLE1Cn2CH3YXplPpO" name="Page-1">
    <mxGraphModel grid="1" shadow="0" math="0" pageHeight="1100" pageWidth="850" pageScale="1" page="1" fold="1" arrows="1" connect="1" tooltips="1" guides="1" gridSize="10" dy="620" dx="1195">
      <root>
        <mxCell id="0"/>
        <mxCell id="1" parent="0"/>
        <mxCell id="MJAz5Irr1PAOmiOQRBMe-1" value="" parent="1" vertex="1" style="whiteSpace=wrap;html=1;aspect=fixed;">
          <mxGeometry as="geometry" height="80" width="80" y="20" x="20"/>
        </mxCell>
        <mxCell id="MJAz5Irr1PAOmiOQRBMe-2" value="&lt;span style=&quot;display: inline ; float: none ; background-color: rgb(248 , 249 , 250) ; color: transparent ; font-family: monospace ; font-size: 0px ; font-style: normal ; font-variant: normal ; font-weight: 400 ; letter-spacing: normal ; text-align: left ; text-decoration: none ; text-indent: 0px ; text-transform: none ; white-space: nowrap ; word-break: break-all ; word-spacing: 0px&quot;&gt;%3CmxGraphModel%3E%3Croot%3E%3CmxCell%20id%3D%220%22%2F%3E%3CmxCell%20id%3D%221%22%20parent%3D%220%22%2F%3E%3CmxCell%20id%3D%222%22%20value%3D%22%22%20parent%3D%221%22%20style%3D%22whiteSpace%3Dwrap%3Bhtml%3D1%3Baspect%3Dfixed%3B%22%20vertex%3D%221%22%3E%3CmxGeometry%20as%3D%22geometry%22%20x%3D%2220%22%20y%3D%2220%22%20width%3D%2280%22%20height%3D%2280%22%2F%3E%3C%2FmxCell%3E%3C%2Froot%3E%3C%2FmxGraphModel%3E&lt;/span&gt;" parent="1" vertex="1" style="text;html=1;resizable=0;points=[];autosize=1;align=left;verticalAlign=top;spacingTop=-4;">
          <mxGeometry as="geometry" height="20" width="20" y="451" x="75"/>
        </mxCell>
        <mxCell id="MJAz5Irr1PAOmiOQRBMe-3" value="" parent="1" vertex="1" style="whiteSpace=wrap;html=1;aspect=fixed;">
          <mxGeometry as="geometry" height="80" width="80" y="30" x="30"/>
        </mxCell>
        <mxCell id="MJAz5Irr1PAOmiOQRBMe-4" value="Number of&lt;br&gt;Questions" parent="1" vertex="1" style="whiteSpace=wrap;html=1;aspect=fixed;">
          <mxGeometry as="geometry" height="60" width="60" y="20" x="310"/>
        </mxCell>
        <mxCell id="MJAz5Irr1PAOmiOQRBMe-5" value="" parent="1" vertex="1" style="shape=parallelogram;perimeter=parallelogramPerimeter;whiteSpace=wrap;html=1;">
          <mxGeometry as="geometry" height="60" width="120" y="490" x="20"/>
        </mxCell>
        <mxCell id="MJAz5Irr1PAOmiOQRBMe-6" value="" parent="1" vertex="1" style="rhombus;whiteSpace=wrap;html=1;rotation=1;">
          <mxGeometry as="geometry" height="90" width="80" y="185" x="20"/>
        </mxCell>
        <mxCell id="MJAz5Irr1PAOmiOQRBMe-7" value="" parent="1" style="endArrow=classic;html=1;" edge="1">
          <mxGeometry as="geometry" height="50" width="50" relative="1">
            <mxPoint as="sourcePoint" y="620" x="20"/>
            <mxPoint as="targetPoint" y="570" x="70"/>
          </mxGeometry>
        </mxCell>
        <mxCell id="MJAz5Irr1PAOmiOQRBMe-8" value="" parent="1" style="endArrow=none;html=1;exitX=0.5;exitY=0;exitDx=0;exitDy=0;" edge="1" source="MJAz5Irr1PAOmiOQRBMe-6">
          <mxGeometry as="geometry" height="50" width="50" relative="1">
            <mxPoint as="sourcePoint" y="200" x="55"/>
            <mxPoint as="targetPoint" y="150" x="70"/>
            <Array as="points">
              <mxPoint y="130" x="63"/>
            </Array>
          </mxGeometry>
        </mxCell>
        <mxCell id="qXUgS-jhm7R-UQ9XNuyn-1" value="" parent="1" style="endArrow=none;html=1;" edge="1">
          <mxGeometry as="geometry" height="50" width="50" relative="1">
            <mxPoint as="sourcePoint" y="700" x="10"/>
            <mxPoint as="targetPoint" y="650" x="60"/>
          </mxGeometry>
        </mxCell>
        <mxCell id="qXUgS-jhm7R-UQ9XNuyn-2" value="" parent="1" style="endArrow=none;html=1;entryX=0.5;entryY=1;entryDx=0;entryDy=0;" edge="1" target="MJAz5Irr1PAOmiOQRBMe-4">
          <mxGeometry as="geometry" height="50" width="50" relative="1">
            <mxPoint as="sourcePoint" y="120" x="340"/>
            <mxPoint as="targetPoint" y="110" x="380"/>
          </mxGeometry>
        </mxCell>
        <mxCell id="qXUgS-jhm7R-UQ9XNuyn-3" value="" parent="1" vertex="1" style="shape=parallelogram;perimeter=parallelogramPerimeter;whiteSpace=wrap;html=1;">
          <mxGeometry as="geometry" height="60" width="120" y="230" x="270"/>
        </mxCell>
        <mxCell id="qXUgS-jhm7R-UQ9XNuyn-4" value="is I less&amp;nbsp;&lt;br&gt;&lt;br&gt;than m" parent="1" vertex="1" style="rhombus;whiteSpace=wrap;html=1;">
          <mxGeometry as="geometry" height="80" width="80" y="115" x="300"/>
        </mxCell>
      </root>
    </mxGraphModel>
  </diagram>
</mxfile>
